# xmcd
# 
# Track frame offsets:
#     150
#     12675
#     24889
#     41190
#     57291
#     70851
#     85718
#     99625
#     120156
#     138087
#     151769
#     162580
# 
# Disc length: 2295
# 
# Revision: 0
# Processed by: cddbd v1.5.2PL0 Copyright (c) Steve Scherf et al.
# Submitted via: fre:ac v1.0.27
# 
DISCID=9008f50c
DTITLE=Warren H. Williams and Dani Young - Desert Water
DYEAR=2016
DGENRE=Country
TTITLE0=Mary Jane
TTITLE1=This Time I'll Give You More
TTITLE2=Desert Water
TTITLE3=Two Ships
TTITLE4=Nothing Left To Burn
TTITLE5=When You're Leaving
TTITLE6=One Lifetime
TTITLE7=When You Lose Him Once
TTITLE8=These Eyes
TTITLE9=My Friend Bottle
TTITLE10=Dusty Ute
TTITLE11=Living Free
EXTD=
EXTT0=
EXTT1=
EXTT2=
EXTT3=
EXTT4=
EXTT5=
EXTT6=
EXTT7=
EXTT8=
EXTT9=
EXTT10=
EXTT11=
PLAYORDER=
